<svg width="85" height="85" viewBox="0 0 85 85" fill="none" xmlns="http://www.w3.org/2000/svg">
<rect width="85" height="85" rx="42.5" fill="#00E6D7"/>
<path fill-rule="evenodd" clip-rule="evenodd" d="M45.9766 45.9526L58.9871 65H65.0001L51.4189 45.5172C53.308 45.3793 55.0475 44.9885 56.6371 44.3448C58.2498 43.7012 59.6321 42.8506 60.7841 41.7931C61.936 40.7356 62.846 39.4598 63.5142 37.9655C64.1823 36.4483 64.5163 34.7471 64.5163 32.8621C64.5163 28.5862 63.1571 25.3793 60.4385 23.2414C57.7199 21.0805 53.884 20 48.9307 20H45.9766V24.0345H48.9307C52.2483 24.0345 54.8516 24.7471 56.7408 26.1724C58.653 27.5747 59.6091 29.8046 59.6091 32.8621C59.6091 35.9655 58.653 38.2184 56.7408 39.6207C54.8516 41 52.2483 41.6897 48.9307 41.6897H45.9766V45.9526Z" fill="black"/>
<path fill-rule="evenodd" clip-rule="evenodd" d="M44.5016 65H50.3073L32.6137 39.6552L48.502 22.0055V20H44.0523L24.7344 41.8966V20H20V65H24.7344V48.2759L29.5034 42.9655L44.5016 65Z" fill="black"/>
</svg>
