<svg width="49" height="50" viewBox="0 0 49 50" fill="none" xmlns="http://www.w3.org/2000/svg">
<circle cx="24.5" cy="25.2853" r="24.5" fill="#66F2E6"/>
<path d="M12.3012 26.2786L25.0608 13.5195L25.1016 13.5603L25.118 13.5116L32.1986 13.5091L32.3791 13.5116C36.1566 13.6074 39.1893 16.6996 39.1893 20.5003C39.1893 24.3009 36.1566 27.3932 32.3791 27.489L32.1986 27.491H31.9983L39.1859 37.9407H37.0386L29.8242 27.491H25.9242C25.9079 27.4909 25.028 27.4827 25.028 26.5948C25.0281 25.7069 25.9079 25.6986 25.9242 25.6986H32.1986C35.0695 25.6985 37.3968 23.3712 37.3969 20.5003C37.3969 17.6293 35.0696 15.3016 32.1986 15.3015H25.8139L16.0138 25.1011L24.8446 37.9407H22.6083L14.7209 26.394L12.3012 28.8137V37.8881H10.5088V13.5091H12.3012V26.2786Z" fill="#111111"/>
<path d="M39.1896 20.5002C39.1896 16.6995 36.1568 13.6073 32.3793 13.5115L32.1989 13.509L25.1182 13.5115L25.1018 13.5602L25.061 13.5194L12.3014 26.2785V13.509H10.509V37.888H12.3014V28.8136L14.7211 26.3939L22.6085 37.9406H24.8448L16.014 25.101L25.8141 15.3014H32.1989C35.0698 15.3015 37.3971 17.6292 37.3971 20.5002C37.3971 23.3711 35.0697 25.6984 32.1989 25.6985V25.1895C34.7078 25.1894 36.7566 23.219 36.8822 20.7413L36.8881 20.5002C36.8881 17.9911 34.9177 15.9419 32.4399 15.8164L32.1989 15.8104H26.0248L16.6731 25.1612L25.8126 38.4496H22.3396L14.6465 27.1877L12.8104 29.0243V38.397H10V13H12.8104V25.0498L24.6987 13.162L24.8582 13.0025H25.061H25.2633L32.2058 13L32.3862 13.0025H32.3922C36.4451 13.1053 39.6985 16.4228 39.6985 20.5002C39.6985 24.3917 36.7347 27.5902 32.941 27.9631L40.1539 38.4496H36.7718L36.6197 38.2299L29.557 27.9999H25.9219C25.8868 27.9997 25.5675 27.9964 25.2395 27.8294C25.0681 27.7421 24.8823 27.6042 24.7409 27.3895C24.5975 27.1717 24.5192 26.9048 24.5192 26.5947C24.5192 26.2846 24.5975 26.0176 24.7409 25.7999C24.8824 25.5852 25.0681 25.4472 25.2395 25.36C25.5675 25.193 25.8868 25.1897 25.9219 25.1895H32.1989V25.6985H25.9244C25.9081 25.6986 25.0283 25.7068 25.0282 26.5947C25.0282 27.4826 25.9081 27.4908 25.9244 27.4909H29.8244L37.0388 37.9406H39.1861L31.9985 27.4909H32.1989L32.3793 27.4889C36.1568 27.3931 39.1895 24.3008 39.1896 20.5002Z" fill="#111111"/>
</svg>
